<svg width="108" height="108" viewBox="0 0 108 108" fill="none" xmlns="http://www.w3.org/2000/svg">
<g clip-path="url(#clip0_1_2)">
<rect width="108" height="108" fill="#E384FF"/>
<path fill-rule="evenodd" clip-rule="evenodd" d="M31.05 29.7C27.3221 29.7 24.3 32.7221 24.3 36.45V71.55C24.3 75.2779 27.3221 78.3 31.05 78.3H76.95C80.6779 78.3 83.7 75.2779 83.7 71.55V47.25C83.7 43.5221 80.6779 40.5 76.95 40.5H58.6874C55.108 40.5 51.8358 38.4777 50.235 35.2762L49.3126 33.4313C48.1692 31.1445 45.8319 29.7 43.2752 29.7H31.05ZM16.2 36.45C16.2 28.2486 22.8486 21.6 31.05 21.6H43.2752C48.9 21.6 54.042 24.7779 56.5575 29.8089L57.4799 31.6537C57.7086 32.1111 58.176 32.4 58.6874 32.4H76.95C85.1514 32.4 91.8 39.0486 91.8 47.25V71.55C91.8 79.7514 85.1514 86.4 76.95 86.4H31.05C22.8486 86.4 16.2 79.7514 16.2 71.55V36.45Z" fill="#1E1E1E"/>
</g>
<defs>
<clipPath id="clip0_1_2">
<rect width="108" height="108" fill="white"/>
</clipPath>
</defs>
</svg>
